<?xml version="1.0" encoding="UTF-8"?>
<svg width="13px" height="12px" viewBox="0 0 13 12" version="1.1" xmlns="http://www.w3.org/2000/svg" xmlns:xlink="http://www.w3.org/1999/xlink">
 <title>java</title>
 <g id="é¡µé¢-1" stroke="none" stroke-width="1" fill="none" fill-rule="evenodd">
  <g id="java" transform="translate(1.000000, 0.500000)" fill-rule="nonzero">
   <rect id="svg_1" stroke="#DB3B4B" fill="#402929" x="0" y="0" width="11" height="11" rx="1.5"></rect>
   <path d="M2.75243464,7.53922829 L3.73283612,7.53922829 C3.86563892,7.80335426 3.9390728,8.06081376 4.10207824,8.25707496 C4.59775691,8.85639159 5.67320788,8.79612661 6.06835913,8.1433448 C6.20545544,7.91708444 6.30050493,7.63735889 6.30376208,7.38176601 C6.32745043,5.43915346 6.32434134,3.4965409 6.32967121,1.55366169 L6.32967121,1.375 L7.32310128,1.375 C7.32754285,1.45566442 7.33287273,1.51766269 7.33287273,1.58086093 C7.33287273,3.61293766 7.33390909,5.64608103 7.33287273,7.67802442 C7.33287273,8.78452694 6.1860606,9.70916784 4.95959641,9.61890369 C3.57086705,9.51690653 2.91647644,8.63973097 2.75243464,7.63629225 C2.7469567,7.60335984 2.75243464,7.56829414 2.75243464,7.53816166 L2.75243464,7.53922829 Z" id="è·¯å¾„" fill="#D81E06"></path>
  </g>
 </g>
</svg>